<svg id="LeftEye" xmlns="http://www.w3.org/2000/svg" width="512" height="512" viewBox="0 0 512 512">
  <defs>
    <style>
      .cls-1 {
        fill: #a1a1a1;
      }

      .cls-2 {
        fill: #113653;
      }

      .cls-2, .cls-3, .cls-4, .cls-6 {
        fill-rule: evenodd;
      }

      .cls-3 {
        fill: #bb272c;
      }

      .cls-4 {
        fill: #555;
      }

      .cls-5 {
        fill: #fff;
      }

      .cls-6 {
        fill: #464646;
      }
    </style>
  </defs>
  <circle class="cls-1" cx="256" cy="256" r="245"/>
  <path class="cls-2" d="M325,88C292.815,47.936,117.5-2,51,170c-31,116-4.5,203,74,260s199.99,30.5,240,8c64-36,111-96,107-195-10.5-73.5-32.5-105.5-46-130,74.591,178.831-22,258-22,258l-202,2L164,110S217,38,325,88Z"/>
  <path class="cls-3" d="M121,95c7.5,7.5,16,14.5,16,35-1.5,24.5-5,29.5-5,31-30,35-44.5,81.5-45,105-5,30.5,10,80,15,94,9.5,21.5,12,64,12,64s15-15,32-26c22.5,10.5,79.5,24.5,106,25s94-15,111-24c14.5,10,30,24,30,24s2.5-37,13-66c8.5-28,16-51,16-81-2.5-42-15.5-77-46-113-5-11-6.5-23-5-39-0.5-18.5,15-30,15-30s-45-10.5-65,27c-31.5-12.5-49.5-15.5-65-16s-45,5.5-67,16C171,91,131.5,91.5,121,95Z"/>
  <path id="LeftClaw" class="cls-4" d="M165,468c5.5-25.5,20.5-31,29-31s29,7.5,29,28c6.5-8,12.187-20.951,9-32-7.5-26-25.5-30-41-30s-33.5,12.5-35,28C154.181,443.46,154,454,165,468Z"/>
  <path id="RightClaw" class="cls-4" d="M341,468c-5.5-25.5-20.5-31-29-31s-29,7.5-29,28c-6.5-8-12.187-20.951-9-32,7.5-26,25.5-30,41-30s33.5,12.5,35,28C351.819,443.46,352,454,341,468Z"/>
  <circle class="cls-5" cx="177" cy="225" r="67"/>
  <circle cx="191" cy="231" r="22"/>
  <circle class="cls-5" cx="182" cy="224" r="7"/>
  <circle class="cls-5" cx="330" cy="225" r="67"/>
  <circle cx="344" cy="231" r="22"/>
  <circle class="cls-5" cx="335" cy="224" r="7"/>
  <path id="Nose" class="cls-6" d="M254,353c6.5-28.5,27.5-55,22-48-3.5,6,15.5-25,15-40s-16.5-34-40-33-33,23-34,34,7.5,32,12,37S246,325,254,353Z"/>
</svg>
